<?xml version="1.0" standalone="no"?>
<!DOCTYPE svg PUBLIC "-//W3C//DTD SVG 20010904//EN"
 "http://www.w3.org/TR/2001/REC-SVG-20010904/DTD/svg10.dtd">
<svg version="1.0" xmlns="http://www.w3.org/2000/svg"
 width="1215.000000pt" height="1215.000000pt" viewBox="0 0 1215.000000 1215.000000"
 preserveAspectRatio="xMidYMid meet">
<metadata>
Created by potrace 1.14, written by Peter Selinger 2001-2017
</metadata>
<g transform="translate(0.000000,1215.000000) scale(0.100000,-0.100000)"
fill="#000000" stroke="none">
<path d="M5128 12136 c-1 -2 -48 -7 -103 -10 -55 -4 -116 -9 -135 -12 -83 -12
-204 -35 -264 -48 -35 -9 -75 -17 -87 -20 -13 -2 -76 -20 -139 -40 -199 -61
-428 -159 -598 -258 -81 -47 -311 -195 -322 -207 -3 -4 -39 -33 -80 -66 -286
-228 -531 -505 -726 -823 -54 -88 -180 -332 -223 -432 -49 -116 -130 -357
-156 -468 -3 -9 -9 -37 -16 -62 -6 -25 -13 -56 -15 -70 -3 -14 -11 -59 -19
-100 -14 -75 -18 -96 -35 -240 -9 -77 -6 -555 3 -600 3 -14 8 -45 11 -70 8
-72 16 -118 37 -230 28 -153 28 -150 33 -168 3 -9 7 -28 10 -42 35 -185 110
-384 234 -615 32 -60 91 -173 132 -250 40 -77 85 -162 100 -190 15 -27 53 -99
85 -160 32 -60 79 -150 105 -200 26 -49 73 -139 105 -200 32 -60 117 -222 190
-360 73 -137 163 -308 200 -380 37 -71 75 -143 85 -160 10 -16 50 -93 90 -170
40 -77 89 -171 110 -210 20 -38 65 -124 100 -190 34 -66 79 -151 100 -190 20
-38 68 -128 105 -200 37 -71 80 -152 95 -180 15 -27 56 -104 90 -170 35 -66
80 -151 100 -190 50 -93 124 -234 200 -380 34 -66 79 -151 100 -190 21 -38 61
-115 90 -170 29 -55 74 -140 100 -190 26 -49 82 -156 124 -237 l76 -146 -67
-7 c-223 -23 -508 -102 -683 -190 -72 -36 -182 -114 -218 -154 -92 -102 -104
-138 -104 -307 0 -119 2 -135 25 -185 41 -85 130 -169 255 -241 123 -71 357
-152 527 -183 215 -39 349 -50 585 -50 206 0 352 9 469 30 14 2 44 7 66 10 22
4 85 17 140 30 510 120 785 355 712 606 -9 30 -18 75 -21 101 -17 150 -198
307 -471 408 -59 22 -118 42 -129 44 -12 2 -55 13 -96 24 -41 11 -93 23 -115
27 -22 5 -47 10 -55 11 -14 3 -42 7 -147 20 -27 3 -50 8 -52 10 -4 4 16 44
119 239 21 39 63 120 95 180 31 61 74 142 95 180 20 39 62 117 92 175 31 58
76 143 100 190 25 47 71 135 103 195 32 61 76 144 98 185 22 41 66 127 99 190
33 63 73 138 88 165 15 28 60 113 100 190 40 77 87 167 105 200 17 33 60 114
95 180 34 66 82 156 105 200 61 115 123 233 195 370 34 66 79 152 100 190 21
39 60 114 89 168 28 53 73 139 100 190 26 50 74 142 106 202 96 183 103 195
200 340 104 156 187 315 235 450 31 89 82 195 179 374 28 52 51 97 51 100 0 3
11 27 24 54 53 104 140 405 176 612 5 28 11 59 14 71 2 12 7 45 11 75 4 30 8
56 10 59 19 31 27 537 12 689 -17 166 -54 372 -93 521 -145 550 -432 1057
-824 1450 -95 96 -125 124 -226 211 -51 44 -186 144 -264 196 -274 182 -581
319 -930 413 -75 20 -283 58 -365 66 -22 2 -62 6 -90 10 -51 6 -510 15 -517
10z"/>
</g>
</svg>
